<svg
   xmlns="http://www.w3.org/2000/svg"
   viewBox="0 0 512 512"
   height="512"
   width="512"
   id="svg1148"
   version="1.1"
   fill="#F2F2F2">
  <path
     id="path1158"
     d="M 254.60156 55.607422 A 200 200 0 0 0 56.851562 227.35742 L 199.12109 227.35742 A 63.5 63.5 0 0 1 255.74219 192.44727 A 63.5 63.5 0 0 1 312.42969 227.35742 L 452.38867 227.35742 A 200 200 0 0 0 254.60156 55.607422 z M 55.931641 276.58789 A 200 200 0 0 0 254.60156 455.60742 A 200 200 0 0 0 453.44922 276.58789 L 315.72266 276.58789 A 63.5 63.5 0 0 1 255.74219 319.44727 A 63.5 63.5 0 0 1 195.77148 276.58789 L 55.931641 276.58789 z "
     style="fill-rule:evenodd;stroke:#000000;stroke-width:0;stroke-linecap:round;stroke-linejoin:round;stroke-miterlimit:4;stroke-dasharray:none;stroke-opacity:1" />
  <path
     id="path1709"
     d="M 255.61523 217.38477 A 39 39 0 0 0 216.61523 256.38477 A 39 39 0 0 0 255.61523 295.38477 A 39 39 0 0 0 294.61523 256.38477 A 39 39 0 0 0 255.61523 217.38477 z M 255.82617 233.57227 A 22.5 22.5 0 0 1 278.32617 256.07227 A 22.5 22.5 0 0 1 255.82617 278.57227 A 22.5 22.5 0 0 1 233.32617 256.07227 A 22.5 22.5 0 0 1 255.82617 233.57227 z "
     style="fill-rule:evenodd;stroke:#000000;stroke-width:0;stroke-linecap:round;stroke-linejoin:round;stroke-miterlimit:4;stroke-dasharray:none;stroke-opacity:1" />
</svg>
