<svg xmlns="http://www.w3.org/2000/svg"
   viewBox="0 0 512 512"
   height="512"
   width="512"
   id="svg2098"
   version="1.1">
  <path
     id="path2108"
     d="m 287.5346,84.492953 c -10.31194,9.527484 -20.23893,17.153437 -32.68842,37.231057 l -31.01167,-2.48212 c -7.45963,-15.01665 -19.17801,-23.726741 -31.01167,-32.266833 -13.86475,17.073073 -16.2431,31.311663 -21.79206,46.332553 -3.82877,-3.77947 -72.366776,46.06872 -64.53847,76.11725 7.82831,30.04856 30.17392,43.02286 30.17392,43.02286 0,0 -13.1418,-0.50033 -19.27758,5.79179 -6.13577,6.29216 -11.91552,20.69392 -8.38184,31.43988 3.53366,10.74595 28.49759,20.68428 28.49759,20.68428 l -2.51491,20.68405 c 0,0 -45.260293,22.2207 -49.450881,40.54075 -4.190587,18.32005 4.210577,35.26907 20.953701,44.67738 16.74312,9.40834 65.37621,-6.61876 65.37621,-6.61876 l 40.23154,4.13709 c 0,0 4.46861,9.16213 24.30691,12.41013 19.83832,3.24799 41.49104,1.41759 101.41689,-15.71965 59.92581,-17.13723 89.6834,-46.33254 89.6834,-46.33254 0,0 -18.26822,-4.37339 -34.36456,-29.78533 -16.09633,-25.41193 -22.48238,-98.75783 -36.04065,-129.89615 -13.5583,-31.13831 -36.04128,-58.74248 -36.04128,-58.74248 -8.16206,-21.29207 -15.08461,-42.94783 -33.52617,-61.225207 z M 273.28601,196.18736 c 8.79484,1.6e-4 15.92445,7.22306 15.92473,16.13308 5e-5,8.9103 -7.12967,16.13357 -15.92473,16.13374 -8.79531,1.8e-4 -15.9254,-7.22318 -15.92534,-16.13374 2.7e-4,-8.91027 7.13027,-16.13327 15.92534,-16.13308 z"
     style="fill:#f2f2f2;fill-opacity:1;stroke:#ffffff;stroke-width:6.98616934;stroke-linecap:round;stroke-linejoin:round;stroke-miterlimit:4;stroke-dasharray:none;stroke-opacity:0.98095236" />
  <path
     id="path2656"
     d="m 221.32006,178.81245 c 23.14231,-25.96704 44.44574,-21.07547 65.37639,-9.92837"
     style="fill:none;stroke:#ffffff;stroke-width:6.03350973;stroke-linecap:round;stroke-linejoin:round;stroke-miterlimit:4;stroke-dasharray:none;stroke-opacity:0.98095236" />
  <path
     id="path2659"
     d="m 108.93797,210.25231 c 9.58095,-11.65101 28.88928,-13.69993 54.094,-9.92838 23.67927,6.42385 42.01995,15.48261 61.47046,23.99359 13.14234,3.24197 20.51689,-2.05633 29.50582,-4.96418"
     style="fill:none;stroke:#ffffff;stroke-width:6.98616934;stroke-linecap:round;stroke-linejoin:round;stroke-miterlimit:4;stroke-dasharray:none;stroke-opacity:0.98095236" />
  <path
     id="path2661"
     d="m 307.65042,259.06684 c -14.18445,-3.22396 -31.70701,-4.87063 -46.09873,4.13682 -14.39174,9.00744 -12.86419,23.71778 -3.35265,37.23141 13.3398,15.06718 32.87522,14.84471 50.28954,19.85675"
     style="fill:none;stroke:#ffffff;stroke-width:5.27138281;stroke-linecap:round;stroke-linejoin:round;stroke-miterlimit:4;stroke-dasharray:none;stroke-opacity:0.98095236" />
  <path
     id="path2663"
     d="m 135.82787,260.72156 c 10.27692,17.01989 3.54213,27.32271 -8.38159,35.5767"
     style="fill:none;stroke:#ffffff;stroke-width:3.49308467;stroke-linecap:round;stroke-linejoin:miter;stroke-miterlimit:4;stroke-dasharray:none;stroke-opacity:0.98095236" />
  <path
     id="path2665"
     d="m 97.272571,369.93372 c 23.209379,13.89208 34.971889,27.18945 15.925019,38.88614"
     style="fill:none;stroke:#ffffff;stroke-width:3.49308467;stroke-linecap:round;stroke-linejoin:miter;stroke-miterlimit:4;stroke-dasharray:none;stroke-opacity:0.98095236" />
  <path
     id="path2667"
     d="m 223.83454,379.03472 c 18.13437,8.8102 31.33486,17.3774 15.92501,34.74934"
     style="fill:none;stroke:#ffffff;stroke-width:3.49308467;stroke-linecap:round;stroke-linejoin:miter;stroke-miterlimit:4;stroke-dasharray:none;stroke-opacity:0.98095236" />
  <path
     id="path2669"
     d="m 300.94515,337.6665 c 14.24013,18.09847 41.7955,25.68191 36.04083,59.57025"
     style="fill:none;stroke:#ffffff;stroke-width:3.49308467;stroke-linecap:round;stroke-linejoin:miter;stroke-miterlimit:4;stroke-dasharray:none;stroke-opacity:0.98095236" />
  <path
     id="path2671"
     d="m 388.95181,350.90432 c -0.59644,11.30733 -2.7988,22.61463 -10.0579,33.92196"
     style="fill:none;stroke:#ffffff;stroke-width:3.49308467;stroke-linecap:round;stroke-linejoin:miter;stroke-miterlimit:4;stroke-dasharray:none;stroke-opacity:0.98095236" />
  <path
     id="path2673"
     d="m 274.96223,265.68574 c 15.69184,17.26493 12.48571,30.98269 -0.83818,37.23144"
     style="fill:none;stroke:#ffffff;stroke-width:3.49308467;stroke-linecap:round;stroke-linejoin:miter;stroke-miterlimit:4;stroke-dasharray:none;stroke-opacity:0.98095236" />
  <path
     id="path2675"
     d="m 134.98949,331.04772 c 1.3798,29.79067 15.41511,55.41719 36.87903,78.59937"
     style="fill:none;stroke:#ffffff;stroke-width:6.98616934;stroke-linecap:round;stroke-linejoin:miter;stroke-miterlimit:4;stroke-dasharray:none;stroke-opacity:0.98095236" />
  <path
     id="path2677"
     d="m 136.66623,313.67314 c 14.07703,-22.23253 26.77953,-47.47664 60.34723,-50.46948 22.33726,1.66821 37.73077,5.64019 51.12769,16.13361"
     style="fill:none;stroke:#ffffff;stroke-width:6.98616934;stroke-linecap:round;stroke-linejoin:round;stroke-miterlimit:4;stroke-dasharray:none;stroke-opacity:0.98095236" />
  <path
     id="path2679"
     d="m 193.66083,271.4773 c -35.55585,50.12665 -41.65001,97.95728 7.54342,141.47938"
     style="fill:none;stroke:#ffffff;stroke-width:3.49308467;stroke-linecap:round;stroke-linejoin:miter;stroke-miterlimit:4;stroke-dasharray:none;stroke-opacity:0.98095236" />
  <path
     id="path2681"
     d="m 217.96717,418.74839 c -10.68782,-10.70752 -9.20295,-22.65342 -6.70501,-33.92211 17.38968,-37.07536 49.3251,-40.64785 79.62508,-47.98714"
     style="fill:none;stroke:#ffffff;stroke-width:6.98616934;stroke-linecap:round;stroke-linejoin:round;stroke-miterlimit:4;stroke-dasharray:none;stroke-opacity:0.98095236" />
  <path
     id="path2683"
     d="M 186.11739,261.54893 C 160.84553,249.31405 144.36757,231.29204 132.47525,210.25231"
     style="fill:none;stroke:#ffffff;stroke-width:3.49308467;stroke-linecap:round;stroke-linejoin:round;stroke-miterlimit:4;stroke-dasharray:none;stroke-opacity:0.98095236" />
  <path
     id="path2685"
     d="m 224.25359,120.06927 c -43.80963,17.40141 -83.27454,36.32667 -91.77834,71.15366"
     style="fill:none;stroke:#ffffff;stroke-width:3.49308467;stroke-linecap:round;stroke-linejoin:miter;stroke-miterlimit:4;stroke-dasharray:none;stroke-opacity:0.98095236" />
  <path
     id="path2687"
     d="m 136.66623,252.44772 33.52615,18.20222"
     style="fill:none;stroke:#ffffff;stroke-width:6.98616934;stroke-linecap:round;stroke-linejoin:round;stroke-miterlimit:4;stroke-dasharray:none;stroke-opacity:0.98095236" />
  <path
     id="path2689"
     d="m 276.63855,313.67291 c 3.66283,7.99787 5.82511,15.99572 5.02894,23.99359"
     style="fill:none;stroke:#ffffff;stroke-width:6.98616934;stroke-linecap:round;stroke-linejoin:round;stroke-miterlimit:4;stroke-dasharray:none;stroke-opacity:0.98095236" />
  <path
     id="path2691"
     d="m 223.83451,119.65558 c -18.85848,3.83875 -53.22289,15.26294 -72.08139,24.40777"
     style="fill:none;stroke:#ffffff;stroke-width:3.49308467;stroke-linecap:butt;stroke-linejoin:miter;stroke-miterlimit:4;stroke-dasharray:none;stroke-opacity:0.98095236" />
</svg>
